<svg width="78" height="80" viewBox="0 0 78 80" fill="none" xmlns="http://www.w3.org/2000/svg">
<rect width="78" height="80" rx="12" fill="#F1F9FF"/>
<path d="M52.3681 41.2857H49.4364V14.7143C49.4364 14.127 49.1979 13.5638 48.7733 13.1485C48.3488 12.7333 47.7729 12.5 47.1725 12.5H30.8275C30.2271 12.5 29.6512 12.7333 29.2267 13.1485C28.8021 13.5638 28.5636 14.127 28.5636 14.7143V41.2857H25.6319C25.3317 41.2857 25.0438 41.4024 24.8315 41.61C24.6193 41.8176 24.5 42.0992 24.5 42.3929C24.5 42.6865 24.6193 42.9681 24.8315 43.1757C25.0438 43.3834 25.3317 43.5 25.6319 43.5H52.3681C52.6683 43.5 52.9562 43.3834 53.1685 43.1757C53.3807 42.9681 53.5 42.6865 53.5 42.3929C53.5 42.0992 53.3807 41.8176 53.1685 41.61C52.9562 41.4024 52.6683 41.2857 52.3681 41.2857ZM43.856 32.4286H40.8903V29.4946H43.856V32.4286ZM43.856 26.7489H40.8903V23.815H43.856V26.7489ZM36.5664 17.3161H37.8681V16.0429C37.8681 15.7492 37.9873 15.4676 38.1996 15.26C38.4119 15.0524 38.6998 14.9357 39 14.9357C39.3002 14.9357 39.5881 15.0524 39.8004 15.26C40.0127 15.4676 40.1319 15.7492 40.1319 16.0429V17.3161H41.4336C41.7338 17.3161 42.0218 17.4327 42.234 17.6403C42.4463 17.848 42.5656 18.1296 42.5656 18.4232C42.5656 18.7168 42.4463 18.9985 42.234 19.2061C42.0218 19.4137 41.7338 19.5304 41.4336 19.5304H40.1319V20.8036C40.1319 21.0972 40.0127 21.3788 39.8004 21.5864C39.5881 21.7941 39.3002 21.9107 39 21.9107C38.6998 21.9107 38.4119 21.7941 38.1996 21.5864C37.9873 21.3788 37.8681 21.0972 37.8681 20.8036V19.5304H36.5664C36.2661 19.5304 35.9782 19.4137 35.766 19.2061C35.5537 18.9985 35.4344 18.7168 35.4344 18.4232C35.4344 18.1296 35.5537 17.848 35.766 17.6403C35.9782 17.4327 36.2661 17.3161 36.5664 17.3161ZM34.144 23.815H37.1097V26.7489H34.144V23.815ZM34.144 29.4946H37.1097V32.4286H34.144V29.4946ZM36.1815 41.2857V38.6286C36.2688 37.9548 36.6044 37.3353 37.1254 36.8862C37.6464 36.4371 38.3169 36.1894 39.0113 36.1894C39.7057 36.1894 40.3763 36.4371 40.8972 36.8862C41.4182 37.3353 41.7538 37.9548 41.8411 38.6286V41.2857H36.1815Z" fill="url(#paint0_linear_509_267)"/>
<path d="M23.372 63.48V72H22.292V68.124H17.6V72H16.52V63.48H17.6V67.164H22.292V63.48H23.372ZM27.8771 72.12C27.4051 72.12 26.9771 72.036 26.5931 71.868C26.2091 71.692 25.8771 71.456 25.5971 71.16C25.3171 70.856 25.1011 70.508 24.9491 70.116C24.7971 69.724 24.7211 69.312 24.7211 68.88C24.7211 68.44 24.7971 68.024 24.9491 67.632C25.1011 67.24 25.3171 66.896 25.5971 66.6C25.8771 66.296 26.2091 66.06 26.5931 65.892C26.9851 65.716 27.4131 65.628 27.8771 65.628C28.3491 65.628 28.7771 65.716 29.1611 65.892C29.5451 66.06 29.8771 66.296 30.1571 66.6C30.4451 66.896 30.6651 67.24 30.8171 67.632C30.9691 68.024 31.0451 68.44 31.0451 68.88C31.0451 69.312 30.9691 69.724 30.8171 70.116C30.6651 70.508 30.4491 70.856 30.1691 71.16C29.8891 71.456 29.5531 71.692 29.1611 71.868C28.7771 72.036 28.3491 72.12 27.8771 72.12ZM25.8011 68.892C25.8011 69.324 25.8931 69.716 26.0771 70.068C26.2691 70.42 26.5211 70.7 26.8331 70.908C27.1451 71.108 27.4931 71.208 27.8771 71.208C28.2611 71.208 28.6091 71.104 28.9211 70.896C29.2411 70.688 29.4931 70.408 29.6771 70.056C29.8691 69.696 29.9651 69.3 29.9651 68.868C29.9651 68.436 29.8691 68.044 29.6771 67.692C29.4931 67.34 29.2411 67.06 28.9211 66.852C28.6091 66.644 28.2611 66.54 27.8771 66.54C27.4931 66.54 27.1451 66.648 26.8331 66.864C26.5211 67.072 26.2691 67.352 26.0771 67.704C25.8931 68.056 25.8011 68.452 25.8011 68.892ZM34.4727 72.12C33.9527 72.12 33.4647 72.036 33.0087 71.868C32.5527 71.692 32.1607 71.432 31.8327 71.088L32.2407 70.344C32.6007 70.68 32.9607 70.92 33.3207 71.064C33.6807 71.208 34.0487 71.28 34.4247 71.28C34.8567 71.28 35.2087 71.2 35.4807 71.04C35.7527 70.872 35.8887 70.628 35.8887 70.308C35.8887 70.076 35.8167 69.904 35.6727 69.792C35.5367 69.68 35.3407 69.588 35.0847 69.516C34.8287 69.436 34.5247 69.348 34.1727 69.252C33.7407 69.124 33.3767 68.988 33.0807 68.844C32.7847 68.7 32.5607 68.52 32.4087 68.304C32.2567 68.088 32.1807 67.816 32.1807 67.488C32.1807 67.088 32.2847 66.752 32.4927 66.48C32.7007 66.2 32.9847 65.988 33.3447 65.844C33.7127 65.7 34.1287 65.628 34.5927 65.628C35.0567 65.628 35.4767 65.7 35.8527 65.844C36.2287 65.988 36.5527 66.2 36.8247 66.48L36.3447 67.212C36.0967 66.956 35.8247 66.768 35.5287 66.648C35.2327 66.52 34.9007 66.456 34.5327 66.456C34.3167 66.456 34.1047 66.484 33.8967 66.54C33.6887 66.588 33.5167 66.68 33.3807 66.816C33.2447 66.944 33.1767 67.128 33.1767 67.368C33.1767 67.568 33.2287 67.728 33.3327 67.848C33.4447 67.96 33.6047 68.056 33.8127 68.136C34.0287 68.216 34.2887 68.304 34.5927 68.4C35.0647 68.536 35.4727 68.672 35.8167 68.808C36.1687 68.944 36.4407 69.12 36.6327 69.336C36.8247 69.552 36.9207 69.852 36.9207 70.236C36.9207 70.828 36.6967 71.292 36.2487 71.628C35.8007 71.956 35.2087 72.12 34.4727 72.12ZM41.556 72.12C41.044 72.12 40.588 71.992 40.188 71.736C39.788 71.48 39.472 71.156 39.24 70.764V74.556H38.184V65.736H39.12V66.912C39.368 66.528 39.692 66.22 40.092 65.988C40.492 65.748 40.928 65.628 41.4 65.628C41.832 65.628 42.228 65.716 42.588 65.892C42.948 66.068 43.26 66.308 43.524 66.612C43.788 66.916 43.992 67.264 44.136 67.656C44.288 68.04 44.364 68.444 44.364 68.868C44.364 69.46 44.244 70.004 44.004 70.5C43.772 70.996 43.444 71.392 43.02 71.688C42.596 71.976 42.108 72.12 41.556 72.12ZM41.232 71.208C41.544 71.208 41.824 71.144 42.072 71.016C42.328 70.88 42.544 70.704 42.72 70.488C42.904 70.264 43.044 70.012 43.14 69.732C43.236 69.452 43.284 69.164 43.284 68.868C43.284 68.556 43.228 68.26 43.116 67.98C43.012 67.7 42.86 67.452 42.66 67.236C42.468 67.02 42.24 66.852 41.976 66.732C41.72 66.604 41.44 66.54 41.136 66.54C40.944 66.54 40.744 66.576 40.536 66.648C40.336 66.72 40.144 66.824 39.96 66.96C39.776 67.088 39.62 67.236 39.492 67.404C39.364 67.572 39.28 67.752 39.24 67.944V69.732C39.36 70.004 39.52 70.252 39.72 70.476C39.92 70.7 40.152 70.88 40.416 71.016C40.68 71.144 40.952 71.208 41.232 71.208ZM45.6606 72V65.736H46.7166V72H45.6606ZM45.6606 64.56V63.24H46.7166V64.56H45.6606ZM51.6662 71.688C51.5782 71.728 51.4582 71.78 51.3062 71.844C51.1542 71.908 50.9782 71.964 50.7782 72.012C50.5782 72.06 50.3662 72.084 50.1422 72.084C49.8862 72.084 49.6502 72.04 49.4342 71.952C49.2182 71.856 49.0462 71.712 48.9182 71.52C48.7902 71.32 48.7262 71.072 48.7262 70.776V66.564H47.8742V65.736H48.7262V63.648H49.7822V65.736H51.1862V66.564H49.7822V70.452C49.7982 70.676 49.8742 70.844 50.0102 70.956C50.1462 71.06 50.3062 71.112 50.4902 71.112C50.6982 71.112 50.8902 71.076 51.0662 71.004C51.2422 70.932 51.3582 70.88 51.4142 70.848L51.6662 71.688ZM52.153 70.188C52.153 69.788 52.265 69.444 52.489 69.156C52.721 68.86 53.037 68.632 53.437 68.472C53.837 68.312 54.301 68.232 54.829 68.232C55.109 68.232 55.405 68.256 55.717 68.304C56.029 68.344 56.305 68.408 56.545 68.496V68.04C56.545 67.56 56.401 67.184 56.113 66.912C55.825 66.632 55.417 66.492 54.889 66.492C54.545 66.492 54.213 66.556 53.893 66.684C53.581 66.804 53.249 66.98 52.897 67.212L52.513 66.468C52.921 66.188 53.329 65.98 53.737 65.844C54.145 65.7 54.569 65.628 55.009 65.628C55.809 65.628 56.441 65.852 56.905 66.3C57.369 66.74 57.601 67.356 57.601 68.148V70.8C57.601 70.928 57.625 71.024 57.673 71.088C57.729 71.144 57.817 71.176 57.937 71.184V72C57.833 72.016 57.741 72.028 57.661 72.036C57.589 72.044 57.529 72.048 57.481 72.048C57.233 72.048 57.045 71.98 56.917 71.844C56.797 71.708 56.729 71.564 56.713 71.412L56.689 71.016C56.417 71.368 56.061 71.64 55.621 71.832C55.181 72.024 54.745 72.12 54.313 72.12C53.897 72.12 53.525 72.036 53.197 71.868C52.869 71.692 52.613 71.46 52.429 71.172C52.245 70.876 52.153 70.548 52.153 70.188ZM56.233 70.632C56.329 70.52 56.405 70.408 56.461 70.296C56.517 70.176 56.545 70.076 56.545 69.996V69.216C56.297 69.12 56.037 69.048 55.765 69C55.493 68.944 55.225 68.916 54.961 68.916C54.425 68.916 53.989 69.024 53.653 69.24C53.325 69.448 53.161 69.736 53.161 70.104C53.161 70.304 53.213 70.5 53.317 70.692C53.429 70.876 53.589 71.028 53.797 71.148C54.013 71.268 54.277 71.328 54.589 71.328C54.917 71.328 55.229 71.264 55.525 71.136C55.821 71 56.057 70.832 56.233 70.632ZM59.3135 63.24H60.3695V70.38C60.3695 70.724 60.4175 70.936 60.5135 71.016C60.6095 71.096 60.7255 71.136 60.8615 71.136C61.0295 71.136 61.1895 71.12 61.3415 71.088C61.4935 71.048 61.6215 71.008 61.7255 70.968L61.8935 71.832C61.7175 71.904 61.5095 71.964 61.2695 72.012C61.0295 72.06 60.8175 72.084 60.6335 72.084C60.2255 72.084 59.9015 71.968 59.6615 71.736C59.4295 71.504 59.3135 71.18 59.3135 70.764V63.24Z" fill="#094067"/>
<defs>
<linearGradient id="paint0_linear_509_267" x1="28.5" y1="13.5" x2="52.3293" y2="40.9096" gradientUnits="userSpaceOnUse">
<stop stop-color="#82C3FF"/>
<stop offset="0.962489" stop-color="#3DA9FC"/>
</linearGradient>
</defs>
</svg>
