<svg width="78" height="80" viewBox="0 0 78 80" fill="none" xmlns="http://www.w3.org/2000/svg">
<rect width="78" height="80" rx="12" fill="#FFF5F5"/>
<path d="M27.4 19.7875H27.75V41.9997H27.4625C26.6856 42.0078 25.9147 41.8644 25.1941 41.5776C24.4735 41.2909 23.8174 40.8665 23.2634 40.3287C22.7094 39.791 22.2684 39.1505 21.9658 38.4441C21.6632 37.7376 21.5049 36.9792 21.5 36.2122V25.5503C21.5165 24.0163 22.1453 22.5506 23.25 21.4716C24.3547 20.3926 25.846 19.7874 27.4 19.7875ZM50.6 19.7875H50.3125V41.9997H50.6C52.1583 41.9997 53.6533 41.3911 54.7587 40.3068C55.8641 39.2225 56.4901 37.7505 56.5 36.2122V25.5503C56.4835 24.0163 55.8547 22.5506 54.75 21.4716C53.6453 20.3926 52.154 19.7874 50.6 19.7875ZM45.1125 19.7875H47.8125V41.9997H30.25V19.7875H32.95V15.234C32.95 14.9067 33.0817 14.5929 33.3161 14.3614C33.5505 14.13 33.8685 14 34.2 14H43.925C44.2565 14 44.5745 14.13 44.8089 14.3614C45.0433 14.5929 45.175 14.9067 45.175 15.234L45.1125 19.7875ZM35.3875 19.7875H42.6125V16.468H35.3875V19.7875ZM42.8875 30.6098C42.8875 30.2825 42.7558 29.9686 42.5214 29.7372C42.287 29.5058 41.969 29.3758 41.6375 29.3758H40.25V28.0183C40.25 27.6911 40.1183 27.3772 39.8839 27.1458C39.6495 26.9143 39.3315 26.7843 39 26.7843C38.6685 26.7843 38.3505 26.9143 38.1161 27.1458C37.8817 27.3772 37.75 27.6911 37.75 28.0183V29.3758H36.375C36.0435 29.3758 35.7255 29.5058 35.4911 29.7372C35.2567 29.9686 35.125 30.2825 35.125 30.6098C35.125 30.937 35.2567 31.2509 35.4911 31.4823C35.7255 31.7138 36.0435 31.8438 36.375 31.8438H37.75V33.1888C37.75 33.5161 37.8817 33.83 38.1161 34.0614C38.3505 34.2928 38.6685 34.4229 39 34.4229C39.3315 34.4229 39.6495 34.2928 39.8839 34.0614C40.1183 33.83 40.25 33.5161 40.25 33.1888V31.8438H41.625C41.9565 31.8438 42.2745 31.7138 42.5089 31.4823C42.7433 31.2509 42.875 30.937 42.875 30.6098H42.8875Z" fill="url(#paint0_linear_509_271)"/>
<path d="M18.388 72V65.496L15.58 70.5H14.92L12.1 65.496V72H11.02V63.48H12.16L15.244 69.012L18.34 63.48H19.468V72H18.388ZM24.0068 72.12C23.5348 72.12 23.1028 72.036 22.7108 71.868C22.3268 71.692 21.9908 71.456 21.7028 71.16C21.4228 70.856 21.2028 70.508 21.0428 70.116C20.8908 69.724 20.8148 69.308 20.8148 68.868C20.8148 68.276 20.9508 67.736 21.2228 67.248C21.4948 66.76 21.8708 66.368 22.3508 66.072C22.8388 65.776 23.3948 65.628 24.0188 65.628C24.6508 65.628 25.1988 65.78 25.6628 66.084C26.1348 66.38 26.4988 66.772 26.7548 67.26C27.0188 67.74 27.1508 68.26 27.1508 68.82C27.1508 68.9 27.1468 68.98 27.1388 69.06C27.1388 69.132 27.1348 69.188 27.1268 69.228H21.9308C21.9628 69.636 22.0748 70 22.2668 70.32C22.4668 70.632 22.7228 70.88 23.0348 71.064C23.3468 71.24 23.6828 71.328 24.0428 71.328C24.4268 71.328 24.7868 71.232 25.1228 71.04C25.4668 70.848 25.7028 70.596 25.8308 70.284L26.7428 70.536C26.6068 70.84 26.4028 71.112 26.1308 71.352C25.8668 71.592 25.5508 71.78 25.1828 71.916C24.8228 72.052 24.4308 72.12 24.0068 72.12ZM21.8948 68.496H26.1668C26.1348 68.088 26.0188 67.728 25.8188 67.416C25.6188 67.104 25.3628 66.86 25.0508 66.684C24.7388 66.508 24.3948 66.42 24.0188 66.42C23.6508 66.42 23.3108 66.508 22.9988 66.684C22.6868 66.86 22.4308 67.104 22.2308 67.416C22.0388 67.728 21.9268 68.088 21.8948 68.496ZM27.9167 68.88C27.9167 68.288 28.0367 67.748 28.2767 67.26C28.5247 66.764 28.8607 66.368 29.2847 66.072C29.7167 65.776 30.2087 65.628 30.7607 65.628C31.2647 65.628 31.7167 65.76 32.1167 66.024C32.5167 66.288 32.8287 66.608 33.0527 66.984V63.24H34.1087V70.8C34.1087 70.928 34.1327 71.024 34.1807 71.088C34.2367 71.144 34.3247 71.176 34.4447 71.184V72C34.2447 72.032 34.0887 72.048 33.9767 72.048C33.7687 72.048 33.5847 71.976 33.4247 71.832C33.2727 71.688 33.1967 71.528 33.1967 71.352V70.824C32.9487 71.224 32.6167 71.54 32.2007 71.772C31.7847 72.004 31.3527 72.12 30.9047 72.12C30.4727 72.12 30.0727 72.036 29.7047 71.868C29.3447 71.692 29.0287 71.452 28.7567 71.148C28.4927 70.844 28.2847 70.5 28.1327 70.116C27.9887 69.724 27.9167 69.312 27.9167 68.88ZM33.0527 69.804V68.004C32.9567 67.732 32.8007 67.488 32.5847 67.272C32.3687 67.048 32.1247 66.872 31.8527 66.744C31.5887 66.608 31.3247 66.54 31.0607 66.54C30.7487 66.54 30.4647 66.608 30.2087 66.744C29.9607 66.872 29.7447 67.048 29.5607 67.272C29.3847 67.488 29.2487 67.736 29.1527 68.016C29.0567 68.296 29.0087 68.588 29.0087 68.892C29.0087 69.204 29.0607 69.5 29.1647 69.78C29.2767 70.06 29.4287 70.308 29.6207 70.524C29.8207 70.74 30.0487 70.908 30.3047 71.028C30.5687 71.148 30.8527 71.208 31.1567 71.208C31.3487 71.208 31.5447 71.172 31.7447 71.1C31.9527 71.028 32.1487 70.928 32.3327 70.8C32.5167 70.672 32.6727 70.524 32.8007 70.356C32.9287 70.18 33.0127 69.996 33.0527 69.804ZM35.8715 72V65.736H36.9275V72H35.8715ZM35.8715 64.56V63.24H36.9275V64.56H35.8715ZM41.4092 72.12C40.9372 72.12 40.5052 72.036 40.1132 71.868C39.7292 71.692 39.3932 71.452 39.1052 71.148C38.8252 70.844 38.6052 70.496 38.4452 70.104C38.2932 69.712 38.2172 69.296 38.2172 68.856C38.2172 68.264 38.3492 67.724 38.6132 67.236C38.8772 66.748 39.2492 66.36 39.7292 66.072C40.2092 65.776 40.7652 65.628 41.3972 65.628C42.0132 65.628 42.5492 65.768 43.0052 66.048C43.4692 66.32 43.8132 66.688 44.0372 67.152L43.0052 67.476C42.8452 67.18 42.6212 66.952 42.3332 66.792C42.0452 66.624 41.7252 66.54 41.3732 66.54C40.9892 66.54 40.6372 66.64 40.3172 66.84C40.0052 67.04 39.7572 67.316 39.5732 67.668C39.3892 68.012 39.2972 68.408 39.2972 68.856C39.2972 69.296 39.3892 69.696 39.5732 70.056C39.7652 70.408 40.0172 70.688 40.3292 70.896C40.6492 71.104 41.0012 71.208 41.3852 71.208C41.6332 71.208 41.8692 71.164 42.0932 71.076C42.3252 70.988 42.5252 70.872 42.6932 70.728C42.8692 70.576 42.9892 70.412 43.0532 70.236L44.0852 70.548C43.9572 70.852 43.7612 71.124 43.4972 71.364C43.2412 71.596 42.9332 71.78 42.5732 71.916C42.2212 72.052 41.8332 72.12 41.4092 72.12ZM45.2817 72V65.736H46.3377V72H45.2817ZM45.2817 64.56V63.24H46.3377V64.56H45.2817ZM53.4833 72H52.4273V68.496C52.4273 67.832 52.3233 67.348 52.1153 67.044C51.9153 66.732 51.6073 66.576 51.1913 66.576C50.9033 66.576 50.6153 66.648 50.3273 66.792C50.0473 66.936 49.7953 67.132 49.5713 67.38C49.3553 67.62 49.1993 67.9 49.1033 68.22V72H48.0473V65.736H49.0073V67.08C49.1753 66.784 49.3913 66.528 49.6553 66.312C49.9193 66.096 50.2193 65.928 50.5553 65.808C50.8913 65.688 51.2433 65.628 51.6113 65.628C51.9713 65.628 52.2713 65.696 52.5113 65.832C52.7593 65.96 52.9513 66.144 53.0873 66.384C53.2313 66.616 53.3313 66.892 53.3873 67.212C53.4513 67.532 53.4833 67.88 53.4833 68.256V72ZM57.8974 72.12C57.4254 72.12 56.9934 72.036 56.6014 71.868C56.2174 71.692 55.8814 71.456 55.5934 71.16C55.3134 70.856 55.0934 70.508 54.9334 70.116C54.7814 69.724 54.7054 69.308 54.7054 68.868C54.7054 68.276 54.8414 67.736 55.1134 67.248C55.3854 66.76 55.7614 66.368 56.2414 66.072C56.7294 65.776 57.2854 65.628 57.9094 65.628C58.5414 65.628 59.0894 65.78 59.5534 66.084C60.0254 66.38 60.3894 66.772 60.6454 67.26C60.9094 67.74 61.0414 68.26 61.0414 68.82C61.0414 68.9 61.0374 68.98 61.0294 69.06C61.0294 69.132 61.0254 69.188 61.0174 69.228H55.8214C55.8534 69.636 55.9654 70 56.1574 70.32C56.3574 70.632 56.6134 70.88 56.9254 71.064C57.2374 71.24 57.5734 71.328 57.9334 71.328C58.3174 71.328 58.6774 71.232 59.0134 71.04C59.3574 70.848 59.5934 70.596 59.7214 70.284L60.6334 70.536C60.4974 70.84 60.2934 71.112 60.0214 71.352C59.7574 71.592 59.4414 71.78 59.0734 71.916C58.7134 72.052 58.3214 72.12 57.8974 72.12ZM55.7854 68.496H60.0574C60.0254 68.088 59.9094 67.728 59.7094 67.416C59.5094 67.104 59.2534 66.86 58.9414 66.684C58.6294 66.508 58.2854 66.42 57.9094 66.42C57.5414 66.42 57.2014 66.508 56.8894 66.684C56.5774 66.86 56.3214 67.104 56.1214 67.416C55.9294 67.728 55.8174 68.088 55.7854 68.496ZM64.3633 72.12C63.8433 72.12 63.3553 72.036 62.8993 71.868C62.4433 71.692 62.0513 71.432 61.7233 71.088L62.1313 70.344C62.4913 70.68 62.8513 70.92 63.2113 71.064C63.5713 71.208 63.9393 71.28 64.3153 71.28C64.7473 71.28 65.0993 71.2 65.3713 71.04C65.6433 70.872 65.7793 70.628 65.7793 70.308C65.7793 70.076 65.7073 69.904 65.5633 69.792C65.4273 69.68 65.2313 69.588 64.9753 69.516C64.7193 69.436 64.4153 69.348 64.0633 69.252C63.6313 69.124 63.2673 68.988 62.9713 68.844C62.6753 68.7 62.4513 68.52 62.2993 68.304C62.1473 68.088 62.0713 67.816 62.0713 67.488C62.0713 67.088 62.1753 66.752 62.3833 66.48C62.5913 66.2 62.8753 65.988 63.2353 65.844C63.6033 65.7 64.0193 65.628 64.4833 65.628C64.9473 65.628 65.3673 65.7 65.7433 65.844C66.1193 65.988 66.4433 66.2 66.7153 66.48L66.2353 67.212C65.9873 66.956 65.7153 66.768 65.4193 66.648C65.1233 66.52 64.7913 66.456 64.4233 66.456C64.2073 66.456 63.9953 66.484 63.7873 66.54C63.5793 66.588 63.4073 66.68 63.2713 66.816C63.1353 66.944 63.0673 67.128 63.0673 67.368C63.0673 67.568 63.1193 67.728 63.2233 67.848C63.3353 67.96 63.4953 68.056 63.7033 68.136C63.9193 68.216 64.1793 68.304 64.4833 68.4C64.9553 68.536 65.3633 68.672 65.7073 68.808C66.0593 68.944 66.3313 69.12 66.5233 69.336C66.7153 69.552 66.8113 69.852 66.8113 70.236C66.8113 70.828 66.5873 71.292 66.1393 71.628C65.6913 71.956 65.0993 72.12 64.3633 72.12Z" fill="#094067"/>
<defs>
<linearGradient id="paint0_linear_509_271" x1="22.5714" y1="27.2821" x2="47.7503" y2="46.4134" gradientUnits="userSpaceOnUse">
<stop stop-color="#FF8282"/>
<stop offset="1" stop-color="#FF4F4F"/>
</linearGradient>
</defs>
</svg>
