<svg width="78" height="80" viewBox="0 0 78 80" fill="none" xmlns="http://www.w3.org/2000/svg">
<rect width="78" height="80" rx="12" fill="#F7FFF8"/>
<path d="M40.5768 17.1222H36.9884V15.2827C36.9884 14.8099 37.1774 14.3565 37.5139 14.0221C37.8504 13.6878 38.3067 13.5 38.7826 13.5C39.2584 13.5 39.7148 13.6878 40.0513 14.0221C40.3877 14.3565 40.5768 14.8099 40.5768 15.2827V17.1222ZM33.2857 39.2298C33.2145 38.9343 33.0989 38.651 32.9429 38.3896C32.9429 38.3101 32.84 38.2533 32.7943 38.1852C32.7486 38.1171 32.6914 38.0489 32.6343 37.9922C32.5907 37.9375 32.5408 37.8879 32.4857 37.8446L32.2686 37.6515L32.1429 37.538L31.8686 37.3904L31.7086 37.3109L31.3887 37.2087H31.2401C31.0748 37.173 30.9064 37.154 30.7373 37.1519C30.5681 37.1533 30.3996 37.1724 30.2344 37.2087H30.0859L29.7659 37.3109L29.6059 37.3904L29.3316 37.538L29.183 37.6402L28.9545 37.8332L28.8174 37.9808L28.7145 38.1625C28.7145 38.242 28.6116 38.2987 28.5659 38.3782C28.4081 38.6388 28.2924 38.9223 28.2231 39.2185C28.1821 39.4205 28.1592 39.6256 28.1545 39.8316C28.1545 40.5333 28.4351 41.2062 28.9344 41.7024C29.4338 42.1986 30.1111 42.4773 30.8173 42.4773C31.5235 42.4773 32.2007 42.1986 32.7001 41.7024C33.1994 41.2062 33.48 40.5333 33.48 39.8316C33.4773 39.6249 33.4505 39.4191 33.4 39.2185L33.2857 39.2298ZM50.542 39.2298C50.4708 38.9343 50.3552 38.651 50.1992 38.3896C50.1992 38.3101 50.0963 38.242 50.0506 38.1738L49.8906 37.9922C49.847 37.9375 49.7971 37.8879 49.742 37.8446L49.5249 37.6515L49.3649 37.5493C49.2813 37.4935 49.1934 37.4441 49.1021 37.4017L48.9421 37.3222L48.6221 37.22H48.4735C48.3083 37.1844 48.1398 37.1653 47.9707 37.1633C47.8016 37.1647 47.633 37.1837 47.4679 37.22H47.3193L46.9993 37.3222L46.8393 37.4017L46.5651 37.5493L46.4165 37.6515L46.1879 37.8446L46.0394 37.9922C45.9933 38.0555 45.9437 38.1161 45.8908 38.1738C45.8908 38.242 45.788 38.3101 45.7422 38.3896C45.5795 38.6477 45.4635 38.932 45.3994 39.2298C45.359 39.4357 45.3361 39.6446 45.3308 39.8543C45.3308 40.556 45.6114 41.2289 46.1107 41.7251C46.6101 42.2213 47.2874 42.5 47.9936 42.5C48.6998 42.5 49.377 42.2213 49.8764 41.7251C50.3757 41.2289 50.6563 40.556 50.6563 39.8543C50.6529 39.6439 50.6261 39.4344 50.5763 39.2298H50.542ZM54.9989 29.1922V36.323C54.9989 36.4975 54.9643 36.6702 54.8972 36.8314C54.83 36.9926 54.7315 37.1391 54.6073 37.2624C54.4831 37.3858 54.3358 37.4836 54.1735 37.5504C54.0113 37.6172 53.8374 37.6515 53.6619 37.6515H52.839C52.7264 37.3986 52.5926 37.1555 52.4391 36.9248L52.3362 36.7886C52.1877 36.5659 52.0195 36.3569 51.8334 36.1641L51.6962 36.0051C51.4829 35.7871 51.2495 35.5895 50.9991 35.4146C50.729 35.2296 50.442 35.0699 50.142 34.9377L49.9706 34.8696C49.7306 34.7788 49.4678 34.6993 49.2164 34.6312L48.9764 34.5744C48.3345 34.4534 47.6755 34.4534 47.0336 34.5744L46.7936 34.6312C46.5308 34.6993 46.2794 34.7788 46.0279 34.8696H45.8565C45.5565 35.0018 45.2696 35.1614 44.9994 35.3465C44.7491 35.5213 44.5157 35.719 44.3023 35.937L44.1652 36.0732C43.9787 36.2687 43.8069 36.4774 43.6509 36.6977C43.6509 36.6977 43.5823 36.7886 43.5595 36.834C43.406 37.0647 43.2722 37.3078 43.1595 37.5607H35.5713C35.4586 37.3078 35.3248 37.0647 35.1713 36.834L35.0685 36.6864C34.917 36.4694 34.7489 36.2644 34.5656 36.0732L34.4285 36.0051C34.215 35.7907 33.9816 35.5969 33.7314 35.426C33.4612 35.2409 33.1743 35.0813 32.8743 34.9491L32.7143 34.8696C32.4674 34.7766 32.2156 34.697 31.9601 34.6312L31.7201 34.5744C31.0782 34.4534 30.4192 34.4534 29.7773 34.5744L29.5373 34.6312C29.2817 34.697 29.0299 34.7766 28.7831 34.8696L28.6345 34.9264C28.3345 35.0585 28.0476 35.2182 27.7774 35.4033C27.5272 35.5741 27.2938 35.768 27.0803 35.9824L26.9432 36.1186C26.7599 36.3098 26.5918 36.5148 26.4403 36.7318C26.3996 36.7763 26.3651 36.8259 26.3375 36.8794C26.184 37.1101 26.0502 37.3532 25.9375 37.6061H25.1375C24.5636 37.5971 24.0167 37.3628 23.6162 36.9542C23.2158 36.5457 22.9944 35.9962 23.0005 35.426V20.6648C22.9944 20.383 23.0443 20.1027 23.1473 19.8401C23.2503 19.5774 23.4043 19.3374 23.6006 19.1339C23.797 18.9304 24.0317 18.7673 24.2915 18.654C24.5513 18.5406 24.831 18.4793 25.1147 18.4734H44.028C45.4447 18.5091 46.7902 19.0973 47.7739 20.1108C48.7576 21.1243 49.3004 22.4817 49.2849 23.8896C49.2849 24.0635 49.3196 24.2357 49.3869 24.3963C49.4542 24.5568 49.5529 24.7025 49.6772 24.825C49.8015 24.9474 49.949 25.0442 50.1112 25.1097C50.2733 25.1753 50.447 25.2082 50.622 25.2067H51.1134C51.6331 25.2111 52.1466 25.3181 52.6243 25.5215C53.1019 25.7249 53.5341 26.0206 53.8957 26.3915C54.2572 26.7624 54.541 27.201 54.7304 27.6818C54.9198 28.1626 55.0111 28.6761 54.9989 29.1922ZM35.7884 27.0689C35.7765 26.7205 35.6272 26.3908 35.3728 26.1508C35.1184 25.9107 34.7793 25.7797 34.4285 25.7858H32.4286V23.6511C32.4458 23.4671 32.4241 23.2816 32.365 23.1063C32.3059 22.9311 32.2107 22.7701 32.0854 22.6335C31.9601 22.4969 31.8075 22.3878 31.6373 22.3131C31.4672 22.2385 31.2832 22.1999 31.0972 22.1999C30.9112 22.1999 30.7273 22.2385 30.5571 22.3131C30.387 22.3878 30.2344 22.4969 30.1091 22.6335C29.9838 22.7701 29.8885 22.9311 29.8295 23.1063C29.7704 23.2816 29.7487 23.4671 29.7659 23.6511V25.7858H27.7431C27.4113 25.8164 27.1029 25.969 26.8784 26.2137C26.654 26.4584 26.5295 26.7776 26.5295 27.1087C26.5295 27.4398 26.654 27.7589 26.8784 28.0036C27.1029 28.2483 27.4113 28.4009 27.7431 28.4315H29.7659V30.5321C29.7967 30.8618 29.9502 31.1682 30.1965 31.3912C30.4428 31.6143 30.764 31.7379 31.0972 31.7379C31.4305 31.7379 31.7517 31.6143 31.998 31.3912C32.2443 31.1682 32.3978 30.8618 32.4286 30.5321V28.3861H34.4285C34.6051 28.3891 34.7804 28.3573 34.9446 28.2926C35.1087 28.2279 35.2583 28.1315 35.3847 28.0091C35.5112 27.8866 35.6119 27.7405 35.6812 27.5791C35.7505 27.4177 35.787 27.2443 35.7884 27.0689ZM46.6565 23.5149C46.6565 22.6446 46.3085 21.8099 45.6891 21.1945C45.0698 20.5791 44.2297 20.2334 43.3538 20.2334H40.3482V25.3771H46.6565V23.5149Z" fill="url(#paint0_linear_509_275)"/>
<path d="M10.112 63.48H11.024L14.504 72H13.352L12.344 69.504H8.768L7.772 72H6.62L10.112 63.48ZM12.104 68.664L10.568 64.728L8.984 68.664H12.104ZM24.9171 72H23.8611V68.496C23.8611 67.84 23.7531 67.356 23.5371 67.044C23.3291 66.732 23.0171 66.576 22.6011 66.576C22.1771 66.576 21.7931 66.732 21.4491 67.044C21.1051 67.348 20.8611 67.744 20.7171 68.232V72H19.6611V68.496C19.6611 67.832 19.5571 67.348 19.3491 67.044C19.1411 66.732 18.8291 66.576 18.4131 66.576C17.9971 66.576 17.6131 66.728 17.2611 67.032C16.9171 67.328 16.6731 67.724 16.5291 68.22V72H15.4731V65.736H16.4331V67.08C16.6891 66.616 17.0211 66.26 17.4291 66.012C17.8371 65.756 18.2971 65.628 18.8091 65.628C19.3291 65.628 19.7451 65.772 20.0571 66.06C20.3691 66.34 20.5611 66.704 20.6331 67.152C20.9131 66.656 21.2531 66.28 21.6531 66.024C22.0531 65.76 22.5091 65.628 23.0211 65.628C23.3811 65.628 23.6811 65.696 23.9211 65.832C24.1691 65.96 24.3651 66.144 24.5091 66.384C24.6531 66.616 24.7571 66.892 24.8211 67.212C24.8851 67.532 24.9171 67.88 24.9171 68.256V72ZM29.775 72.12C29.287 72.12 28.843 72 28.443 71.76C28.043 71.52 27.727 71.208 27.495 70.824V72H26.559V63.24H27.615V66.984C27.879 66.576 28.203 66.248 28.587 66C28.971 65.752 29.419 65.628 29.931 65.628C30.363 65.628 30.751 65.72 31.095 65.904C31.439 66.08 31.731 66.324 31.971 66.636C32.219 66.94 32.407 67.288 32.535 67.68C32.671 68.064 32.739 68.468 32.739 68.892C32.739 69.332 32.663 69.748 32.511 70.14C32.367 70.524 32.159 70.868 31.887 71.172C31.615 71.468 31.299 71.7 30.939 71.868C30.587 72.036 30.199 72.12 29.775 72.12ZM29.511 71.208C29.823 71.208 30.111 71.144 30.375 71.016C30.639 70.888 30.867 70.716 31.059 70.5C31.251 70.284 31.399 70.036 31.503 69.756C31.607 69.476 31.659 69.188 31.659 68.892C31.659 68.484 31.571 68.1 31.395 67.74C31.227 67.38 30.987 67.092 30.675 66.876C30.371 66.652 30.015 66.54 29.607 66.54C29.311 66.54 29.035 66.608 28.779 66.744C28.523 66.88 28.295 67.06 28.095 67.284C27.903 67.5 27.743 67.74 27.615 68.004V69.816C27.655 70.016 27.739 70.2 27.867 70.368C27.995 70.536 28.151 70.684 28.335 70.812C28.519 70.932 28.711 71.028 28.911 71.1C29.119 71.172 29.319 71.208 29.511 71.208ZM33.9756 69.492V65.736H35.0316V69.288C35.0316 69.928 35.1436 70.408 35.3676 70.728C35.5916 71.048 35.9236 71.208 36.3636 71.208C36.6516 71.208 36.9276 71.148 37.1916 71.028C37.4636 70.9 37.7076 70.72 37.9236 70.488C38.1396 70.256 38.3076 69.98 38.4276 69.66V65.736H39.4836V70.8C39.4836 70.928 39.5076 71.024 39.5556 71.088C39.6116 71.144 39.6996 71.176 39.8196 71.184V72C39.6996 72.016 39.6036 72.024 39.5316 72.024C39.4676 72.032 39.4036 72.036 39.3396 72.036C39.1396 72.036 38.9676 71.976 38.8236 71.856C38.6796 71.728 38.6036 71.572 38.5956 71.388L38.5716 70.656C38.2996 71.12 37.9316 71.48 37.4676 71.736C37.0116 71.992 36.5116 72.12 35.9676 72.12C35.3116 72.12 34.8156 71.9 34.4796 71.46C34.1436 71.012 33.9756 70.356 33.9756 69.492ZM41.2666 63.24H42.3226V70.38C42.3226 70.724 42.3706 70.936 42.4666 71.016C42.5626 71.096 42.6786 71.136 42.8146 71.136C42.9826 71.136 43.1426 71.12 43.2946 71.088C43.4466 71.048 43.5746 71.008 43.6786 70.968L43.8466 71.832C43.6706 71.904 43.4626 71.964 43.2226 72.012C42.9826 72.06 42.7706 72.084 42.5866 72.084C42.1786 72.084 41.8546 71.968 41.6146 71.736C41.3826 71.504 41.2666 71.18 41.2666 70.764V63.24ZM44.1842 70.188C44.1842 69.788 44.2962 69.444 44.5202 69.156C44.7522 68.86 45.0682 68.632 45.4682 68.472C45.8682 68.312 46.3322 68.232 46.8602 68.232C47.1402 68.232 47.4362 68.256 47.7482 68.304C48.0602 68.344 48.3362 68.408 48.5762 68.496V68.04C48.5762 67.56 48.4322 67.184 48.1442 66.912C47.8562 66.632 47.4482 66.492 46.9202 66.492C46.5762 66.492 46.2442 66.556 45.9242 66.684C45.6122 66.804 45.2802 66.98 44.9282 67.212L44.5442 66.468C44.9522 66.188 45.3602 65.98 45.7682 65.844C46.1762 65.7 46.6002 65.628 47.0402 65.628C47.8402 65.628 48.4722 65.852 48.9362 66.3C49.4002 66.74 49.6322 67.356 49.6322 68.148V70.8C49.6322 70.928 49.6562 71.024 49.7042 71.088C49.7602 71.144 49.8482 71.176 49.9682 71.184V72C49.8642 72.016 49.7722 72.028 49.6922 72.036C49.6202 72.044 49.5602 72.048 49.5122 72.048C49.2642 72.048 49.0762 71.98 48.9482 71.844C48.8282 71.708 48.7602 71.564 48.7442 71.412L48.7202 71.016C48.4482 71.368 48.0922 71.64 47.6522 71.832C47.2122 72.024 46.7762 72.12 46.3442 72.12C45.9282 72.12 45.5562 72.036 45.2282 71.868C44.9002 71.692 44.6442 71.46 44.4602 71.172C44.2762 70.876 44.1842 70.548 44.1842 70.188ZM48.2642 70.632C48.3602 70.52 48.4362 70.408 48.4922 70.296C48.5482 70.176 48.5762 70.076 48.5762 69.996V69.216C48.3282 69.12 48.0682 69.048 47.7962 69C47.5242 68.944 47.2562 68.916 46.9922 68.916C46.4562 68.916 46.0202 69.024 45.6842 69.24C45.3562 69.448 45.1922 69.736 45.1922 70.104C45.1922 70.304 45.2442 70.5 45.3482 70.692C45.4602 70.876 45.6202 71.028 45.8282 71.148C46.0442 71.268 46.3082 71.328 46.6202 71.328C46.9482 71.328 47.2602 71.264 47.5562 71.136C47.8522 71 48.0882 70.832 48.2642 70.632ZM56.7568 72H55.7008V68.496C55.7008 67.832 55.5968 67.348 55.3888 67.044C55.1888 66.732 54.8808 66.576 54.4648 66.576C54.1768 66.576 53.8888 66.648 53.6008 66.792C53.3208 66.936 53.0688 67.132 52.8448 67.38C52.6288 67.62 52.4728 67.9 52.3768 68.22V72H51.3208V65.736H52.2808V67.08C52.4488 66.784 52.6648 66.528 52.9288 66.312C53.1928 66.096 53.4928 65.928 53.8288 65.808C54.1648 65.688 54.5168 65.628 54.8848 65.628C55.2448 65.628 55.5448 65.696 55.7848 65.832C56.0328 65.96 56.2248 66.144 56.3608 66.384C56.5048 66.616 56.6048 66.892 56.6608 67.212C56.7248 67.532 56.7568 67.88 56.7568 68.256V72ZM61.1709 72.12C60.6989 72.12 60.2669 72.036 59.8749 71.868C59.4909 71.692 59.1549 71.452 58.8669 71.148C58.5869 70.844 58.3669 70.496 58.2069 70.104C58.0549 69.712 57.9789 69.296 57.9789 68.856C57.9789 68.264 58.1109 67.724 58.3749 67.236C58.6389 66.748 59.0109 66.36 59.4909 66.072C59.9709 65.776 60.5269 65.628 61.1589 65.628C61.7749 65.628 62.3109 65.768 62.7669 66.048C63.2309 66.32 63.5749 66.688 63.7989 67.152L62.7669 67.476C62.6069 67.18 62.3829 66.952 62.0949 66.792C61.8069 66.624 61.4869 66.54 61.1349 66.54C60.7509 66.54 60.3989 66.64 60.0789 66.84C59.7669 67.04 59.5189 67.316 59.3349 67.668C59.1509 68.012 59.0589 68.408 59.0589 68.856C59.0589 69.296 59.1509 69.696 59.3349 70.056C59.5269 70.408 59.7789 70.688 60.0909 70.896C60.4109 71.104 60.7629 71.208 61.1469 71.208C61.3949 71.208 61.6309 71.164 61.8549 71.076C62.0869 70.988 62.2869 70.872 62.4549 70.728C62.6309 70.576 62.7509 70.412 62.8149 70.236L63.8469 70.548C63.7189 70.852 63.5229 71.124 63.2589 71.364C63.0029 71.596 62.6949 71.78 62.3349 71.916C61.9829 72.052 61.5949 72.12 61.1709 72.12ZM67.7568 72.12C67.2848 72.12 66.8528 72.036 66.4608 71.868C66.0768 71.692 65.7408 71.456 65.4528 71.16C65.1728 70.856 64.9528 70.508 64.7928 70.116C64.6408 69.724 64.5648 69.308 64.5648 68.868C64.5648 68.276 64.7008 67.736 64.9728 67.248C65.2448 66.76 65.6208 66.368 66.1008 66.072C66.5888 65.776 67.1448 65.628 67.7688 65.628C68.4008 65.628 68.9488 65.78 69.4128 66.084C69.8848 66.38 70.2488 66.772 70.5048 67.26C70.7688 67.74 70.9008 68.26 70.9008 68.82C70.9008 68.9 70.8968 68.98 70.8888 69.06C70.8888 69.132 70.8848 69.188 70.8768 69.228H65.6808C65.7128 69.636 65.8248 70 66.0168 70.32C66.2168 70.632 66.4728 70.88 66.7848 71.064C67.0968 71.24 67.4328 71.328 67.7928 71.328C68.1768 71.328 68.5368 71.232 68.8728 71.04C69.2168 70.848 69.4528 70.596 69.5808 70.284L70.4928 70.536C70.3568 70.84 70.1528 71.112 69.8808 71.352C69.6168 71.592 69.3008 71.78 68.9328 71.916C68.5728 72.052 68.1808 72.12 67.7568 72.12ZM65.6448 68.496H69.9168C69.8848 68.088 69.7688 67.728 69.5688 67.416C69.3688 67.104 69.1128 66.86 68.8008 66.684C68.4888 66.508 68.1448 66.42 67.7688 66.42C67.4008 66.42 67.0608 66.508 66.7488 66.684C66.4368 66.86 66.1808 67.104 65.9808 67.416C65.7888 67.728 65.6768 68.088 65.6448 68.496Z" fill="#094067"/>
<defs>
<linearGradient id="paint0_linear_509_275" x1="27.4138" y1="14.4355" x2="48.9159" y2="43.6089" gradientUnits="userSpaceOnUse">
<stop stop-color="#82FFBB" stop-opacity="0.97"/>
<stop offset="0.962489" stop-color="#3DFC72"/>
</linearGradient>
</defs>
</svg>
