<svg width="78" height="80" viewBox="0 0 78 80" fill="none" xmlns="http://www.w3.org/2000/svg">
<rect width="78" height="80" rx="12" fill="#FFFDF1"/>
<path d="M37.5486 25.7082C37.036 26.2714 36.7515 26.9979 36.7486 27.7514C36.7414 26.9966 36.4529 26.2703 35.9371 25.7082C36.5771 26.2553 36.9086 26.2553 37.5486 25.7082ZM55 30.699C55 31.2468 54.7772 31.7722 54.3807 32.1596C53.9842 32.5469 53.4465 32.7646 52.8857 32.7646H50.9657V35.9689C50.9642 36.5701 50.8415 37.165 50.6047 37.7199C50.3678 38.2747 50.0214 38.7785 49.5852 39.2026C49.1491 39.6266 48.6317 39.9626 48.0626 40.1913C47.4935 40.4199 46.8839 40.5369 46.2686 40.5354H40.4857V47H32.3143V39.9325C29.6371 39.1417 27.289 37.5351 25.6132 35.3475C23.9374 33.1599 23.0217 30.5061 23 27.7738C23.0452 24.3437 24.4826 21.0714 26.9964 18.6763C29.5102 16.2812 32.8946 14.9592 36.4057 15.001C39.4954 14.9747 42.4982 15.9999 44.8985 17.9007C47.2988 19.8015 48.9469 22.4594 49.56 25.418L55 30.699ZM41.7771 26.5345C41.7771 24.8374 41.64 24.7034 39.9029 24.7034C39.1984 24.7065 38.515 24.9382 37.96 25.3621L38.0743 25.2616C38.3677 24.9773 38.6005 24.639 38.7594 24.2663C38.9183 23.8935 39.0001 23.4938 39.0001 23.09C39.0001 22.6863 38.9183 22.2865 38.7594 21.9138C38.6005 21.5411 38.3677 21.2028 38.0743 20.9184C36.84 19.7126 36.6457 19.7126 35.4114 20.9184C35.1181 21.2028 34.8852 21.5411 34.7263 21.9138C34.5674 22.2865 34.4856 22.6863 34.4856 23.09C34.4856 23.4938 34.5674 23.8935 34.7263 24.2663C34.8852 24.639 35.1181 24.9773 35.4114 25.2616L35.5257 25.3621C34.9743 24.9398 34.295 24.7081 33.5943 24.7034C31.8457 24.7034 31.7086 24.8374 31.7086 26.5345C31.7086 26.9386 31.7902 27.3388 31.9489 27.712C32.1076 28.0853 32.3401 28.4242 32.6331 28.7095C32.9262 28.9948 33.274 29.2207 33.6566 29.3743C34.0393 29.528 34.4492 29.6063 34.8629 29.6048C36.6 29.6048 36.7486 29.4709 36.7486 27.7738C36.7486 29.4709 36.8857 29.6048 38.6229 29.6048C39.0365 29.6063 39.4465 29.528 39.8291 29.3743C40.2117 29.2207 40.5595 28.9948 40.8526 28.7095C41.1456 28.4242 41.3782 28.0853 41.5368 27.712C41.6955 27.3388 41.7771 26.9386 41.7771 26.5345Z" fill="url(#paint0_linear_509_279)"/>
<path d="M28.245 63.48V72H27.165V68.124H22.473V72H21.393V63.48H22.473V67.164H27.165V63.48H28.245ZM32.7861 72.12C32.3141 72.12 31.8821 72.036 31.4901 71.868C31.1061 71.692 30.7701 71.456 30.4821 71.16C30.2021 70.856 29.9821 70.508 29.8221 70.116C29.6701 69.724 29.5941 69.308 29.5941 68.868C29.5941 68.276 29.7301 67.736 30.0021 67.248C30.2741 66.76 30.6501 66.368 31.1301 66.072C31.6181 65.776 32.1741 65.628 32.7981 65.628C33.4301 65.628 33.9781 65.78 34.4421 66.084C34.9141 66.38 35.2781 66.772 35.5341 67.26C35.7981 67.74 35.9301 68.26 35.9301 68.82C35.9301 68.9 35.9261 68.98 35.9181 69.06C35.9181 69.132 35.9141 69.188 35.9061 69.228H30.7101C30.7421 69.636 30.8541 70 31.0461 70.32C31.2461 70.632 31.5021 70.88 31.8141 71.064C32.1261 71.24 32.4621 71.328 32.8221 71.328C33.2061 71.328 33.5661 71.232 33.9021 71.04C34.2461 70.848 34.4821 70.596 34.6101 70.284L35.5221 70.536C35.3861 70.84 35.1821 71.112 34.9101 71.352C34.6461 71.592 34.3301 71.78 33.9621 71.916C33.6021 72.052 33.2101 72.12 32.7861 72.12ZM30.6741 68.496H34.9461C34.9141 68.088 34.7981 67.728 34.5981 67.416C34.3981 67.104 34.1421 66.86 33.8301 66.684C33.5181 66.508 33.1741 66.42 32.7981 66.42C32.4301 66.42 32.0901 66.508 31.7781 66.684C31.4661 66.86 31.2101 67.104 31.0101 67.416C30.8181 67.728 30.7061 68.088 30.6741 68.496ZM36.612 70.188C36.612 69.788 36.724 69.444 36.948 69.156C37.18 68.86 37.496 68.632 37.896 68.472C38.296 68.312 38.76 68.232 39.288 68.232C39.568 68.232 39.864 68.256 40.176 68.304C40.488 68.344 40.764 68.408 41.004 68.496V68.04C41.004 67.56 40.86 67.184 40.572 66.912C40.284 66.632 39.876 66.492 39.348 66.492C39.004 66.492 38.672 66.556 38.352 66.684C38.04 66.804 37.708 66.98 37.356 67.212L36.972 66.468C37.38 66.188 37.788 65.98 38.196 65.844C38.604 65.7 39.028 65.628 39.468 65.628C40.268 65.628 40.9 65.852 41.364 66.3C41.828 66.74 42.06 67.356 42.06 68.148V70.8C42.06 70.928 42.084 71.024 42.132 71.088C42.188 71.144 42.276 71.176 42.396 71.184V72C42.292 72.016 42.2 72.028 42.12 72.036C42.048 72.044 41.988 72.048 41.94 72.048C41.692 72.048 41.504 71.98 41.376 71.844C41.256 71.708 41.188 71.564 41.172 71.412L41.148 71.016C40.876 71.368 40.52 71.64 40.08 71.832C39.64 72.024 39.204 72.12 38.772 72.12C38.356 72.12 37.984 72.036 37.656 71.868C37.328 71.692 37.072 71.46 36.888 71.172C36.704 70.876 36.612 70.548 36.612 70.188ZM40.692 70.632C40.788 70.52 40.864 70.408 40.92 70.296C40.976 70.176 41.004 70.076 41.004 69.996V69.216C40.756 69.12 40.496 69.048 40.224 69C39.952 68.944 39.684 68.916 39.42 68.916C38.884 68.916 38.448 69.024 38.112 69.24C37.784 69.448 37.62 69.736 37.62 70.104C37.62 70.304 37.672 70.5 37.776 70.692C37.888 70.876 38.048 71.028 38.256 71.148C38.472 71.268 38.736 71.328 39.048 71.328C39.376 71.328 39.688 71.264 39.984 71.136C40.28 71 40.516 70.832 40.692 70.632ZM43.7725 63.24H44.8285V70.38C44.8285 70.724 44.8765 70.936 44.9725 71.016C45.0685 71.096 45.1845 71.136 45.3205 71.136C45.4885 71.136 45.6485 71.12 45.8005 71.088C45.9525 71.048 46.0805 71.008 46.1845 70.968L46.3525 71.832C46.1765 71.904 45.9685 71.964 45.7285 72.012C45.4885 72.06 45.2765 72.084 45.0925 72.084C44.6845 72.084 44.3605 71.968 44.1205 71.736C43.8885 71.504 43.7725 71.18 43.7725 70.764V63.24ZM50.4221 71.688C50.3341 71.728 50.2141 71.78 50.0621 71.844C49.9101 71.908 49.7341 71.964 49.5341 72.012C49.3341 72.06 49.1221 72.084 48.8981 72.084C48.6421 72.084 48.4061 72.04 48.1901 71.952C47.9741 71.856 47.8021 71.712 47.6741 71.52C47.5461 71.32 47.4821 71.072 47.4821 70.776V66.564H46.6301V65.736H47.4821V63.648H48.5381V65.736H49.9421V66.564H48.5381V70.452C48.5541 70.676 48.6301 70.844 48.7661 70.956C48.9021 71.06 49.0621 71.112 49.2461 71.112C49.4541 71.112 49.6461 71.076 49.8221 71.004C49.9981 70.932 50.1141 70.88 50.1701 70.848L50.4221 71.688ZM56.8368 72H55.7808V68.496C55.7808 67.856 55.6648 67.376 55.4328 67.056C55.2088 66.736 54.8848 66.576 54.4608 66.576C54.1888 66.576 53.9128 66.648 53.6328 66.792C53.3608 66.936 53.1208 67.132 52.9128 67.38C52.7048 67.62 52.5528 67.9 52.4568 68.22V72H51.4008V63.24H52.4568V67.08C52.7048 66.632 53.0408 66.28 53.4648 66.024C53.8968 65.76 54.3608 65.628 54.8568 65.628C55.2328 65.628 55.5448 65.696 55.7928 65.832C56.0488 65.96 56.2528 66.144 56.4048 66.384C56.5568 66.624 56.6648 66.904 56.7288 67.224C56.8008 67.536 56.8368 67.88 56.8368 68.256V72Z" fill="#094067"/>
<defs>
<linearGradient id="paint0_linear_509_279" x1="23" y1="15" x2="55" y2="59" gradientUnits="userSpaceOnUse">
<stop stop-color="#F9EC7D"/>
<stop offset="1" stop-color="#F5B100"/>
</linearGradient>
</defs>
</svg>
